<?xml version="1.0" encoding="utf-8" standalone="no"?>
<!-- Generator: Adobe Illustrator 25.2.0, SVG Export Plug-In . SVG Version: 6.00 Build 0)  -->
<svg version="1.1" id="Layer_1" xmlns="http://www.w3.org/2000/svg" xmlns:xlink="http://www.w3.org/1999/xlink" x="0px" y="0px" viewBox="0 0 384.5 65.4" style="enable-background:new 0 0 384.5 65.4;" xml:space="preserve">
  <style type="text/css">
	.st0{fill:#FFCE34;}
	.st1{fill:#1C2B39;}
</style>
  <g>
    <path class="st0" d="M52,33.9c-1.5-1.5-2.5-3.5-2.5-5.6c-0.1-2.2,0.8-4.3,2.3-5.9c1.6-1.6,3.7-2.4,5.9-2.3c2.1,0.1,4.1,1,5.6,2.5
		l1.8,1.8c0.4,0.4,1.2,0.4,1.6,0l1.8-1.8c1.5-1.5,3.5-2.5,5.6-2.5c2.2-0.1,4.3,0.8,5.9,2.3c1.6,1.6,2.4,3.7,2.3,5.9
		c-0.1,2.1-1,4.1-2.5,5.6L66.8,47.1c-0.4,0.4-1.2,0.4-1.6,0L52,33.9z" />
    <g>
      <path class="st1" d="M25.5,29.9c-3.1,0-6.4,0.2-8.7,0.7c-1.6,0.4-1.9,3.2-1.9,4.2c0,1,0.7,1.4,2.8,1.4c1-0.1,2.2-0.2,3.7-0.2
			c-0.3,6.8-2,10.3-6.4,10.3c-4.5,0-7-2.7-7-14.3c0-12.7,1.6-22.3,7-22.3c3.4,0,5.1,2.8,5.1,9.5c0,1.2-0.1,3.1-0.1,4.3
			c0,1.1,1,1.5,2.2,1.5c1.3,0,2.6-0.4,3.4-1.1c1.1-1,1.6-3.9,1.6-7c0-7.5-3.2-14.3-11.6-14.3C4.6,2.5,0,15.5,0,32.7
			c0,14.4,4.4,20.7,14.6,20.7c12.4,0,13-11.3,13-20.7C27.6,31.1,26.9,29.9,25.5,29.9z" />
      <path class="st1" d="M38.5,10.9c3.1,0,5.4-1.9,5.4-5.4c0-1.8-1.2-4.2-4.9-4.2c-3.4,0-5.7,2.1-5.7,5.2
			C33.4,8.8,35.2,10.9,38.5,10.9z" />
      <path class="st1" d="M94.2,10.9c3.1,0,5.4-1.9,5.4-5.4c0-1.8-1.2-4.2-4.9-4.2c-3.4,0-5.7,2.1-5.7,5.2
			C89.1,8.8,90.9,10.9,94.2,10.9z" />
      <path class="st1" d="M209.5,2.7c-1.6,0-1.9,0.8-1.9,2.2c0,3,0.5,18.6,1.5,36.7c-4.3-12.5-12.2-31.8-15.3-36.8
			c-1.2-1.6-3.7-2-5.3-2c-1.4,0-1.9,1-2.1,3c-0.4,4.2-0.9,21.6-0.9,33.4c0,5.5,0,9.7,0.1,11.1c0.5,2.1,3.7,2.8,4.9,2.8
			c1.3,0,2.1-0.8,2.1-2.5c0-3.3-0.7-24.6-1.3-36.8c4,12.9,11.5,30.8,15.4,37.4c1.2,1.8,4,1.9,5.3,1.9c1.3,0,1.9-1,2-2.2
			c0.3-3.6,1-24,1-36.4c0-3.5,0-7-0.2-8.8C214.7,3.7,211.7,2.7,209.5,2.7z" />
      <path class="st1" d="M383.2,38.8c-0.4,0-0.7,0.3-1,0.8c-0.6,2.5-1.6,6-3.9,6c-2.8,0-5.2-3.7-7.8-10c6.2-4.9,10.9-13.2,10.9-17
			c0-2.6-3.4-3.9-5.2-3.9c-1,0-1.6,0.4-1.9,1.3c-1.5,6-3.4,12.1-9.1,18.2c0.3-11.9,0.4-26.5-0.1-31.1C365,1.3,362.8,0,360.7,0
			c-1.1,0-1.9,0.7-2.1,2c-0.7,7.3-0.9,19.4-0.9,29.6c-2.3,8.9-4.8,14.7-7.4,14.7c-1.3,0-2.1-1-2.1-2.8c0-7,2.2-19.1,2.2-24.1
			c0-2.2-1-3.3-3.4-3.6c-4.8-0.7-10.6-1.2-13.5-1.2c-1.6,0-2.3,1.3-2.5,4c-0.3,2.5,0.5,5,3.5,5c0.2,0,0.5,0,0.9,0
			c-1.8,6-4,9.9-7.4,10.9c0-0.5,0-1,0-1.6c0-13.1-3.9-18.3-10.6-18.3c-6.5,0-10.1,5.9-11.4,14.3c-1.2,1.5-2.6,2.5-4.3,2.9
			c0.2-1.7,0.2-3.5,0.2-5.4c0-7.4-1.3-11.6-4.4-11.6c-3.1,0-4.6,4-4.6,10.6c0,4.3,1.2,7.9,3.1,10c-0.6,5.6-2.6,11.5-5,11.5
			c-2.8,0-4-5.1-5.1-15.6c0.7-5.5,1-10.2,1-12.5c0-2.3-1.8-4-5.5-4c-1.7,0-2.5,1.3-2.5,5.6c0,6.1,0.4,11.9,1.1,16.8
			c-1,5.5-2.6,9.3-4.6,9.3c-2.4,0-3.8-5.6-3.8-15.2c0-3.4,0.7-8.3,0.7-11.3c0-2.9-2.5-5-5.3-5c-1.3,0-1.9,0.7-2.2,2.3
			c-0.6,3.1-0.8,5.8-0.8,11.7c0,1.8,0.1,3.4,0.2,5c-1.9,6.5-4.2,11.6-6.7,11.6c-1.5,0-2.5-1.5-2.5-6.1c0-11.6,0.9-20,1.4-25.5
			c4.9-0.3,9.9-0.7,10.6-0.9c0.5-0.2,1-0.7,1-1.3c0-1.2-1.8-3.4-5.5-3.4c-1.3,0-3.3,0.1-5.6,0.2V8.5c0-2.2-1.5-5.2-3.6-5.2
			c-1.3,0-2.5,1.9-3.4,5.8c-4,0.4-7.3,1.1-7.3,2.2c0,1.6,2.8,3.1,5.1,3.1c0.4,0,0.8,0,1.3,0c-0.4,3.7-0.8,8.4-1,14.2
			c-3.3,9.6-8.1,18.2-14.5,18.2c-3.5,0-6.2-3-6.2-9.4c0-0.4,0-0.7,0-1c9.7-0.9,14.7-6.6,14.7-12.9c0-5.3-3.7-8.8-8.9-8.8
			c-7.9,0-12.9,9.1-12.9,24.6c0,7.7,3.4,14.3,12.5,14.3c6.8,0,11.9-6,15.2-12.8c0.2,8.1,2.1,12.8,7.4,12.8c4.4,0,7.8-4.4,10.3-10.3
			c1.7,6.6,4.7,10.3,8.6,10.3c3.4,0,6.1-3,8-7.9c1.9,4.9,4.6,7.9,8.3,7.9c4.9,0,8.9-6.7,10.6-16.4c1.7-0.1,3.1-0.6,4.4-1.3
			c0,0.2,0,0.4,0,0.6c0,9.8,3.1,17,11,17c6.7,0,10-6,11.1-13.6c7.2-0.6,10.9-8.6,11.3-16.3c1.6,0,3.2-0.1,4.3-0.1
			c-0.3,6.1-2.2,16.5-2.2,22.5c0,4.7,2.8,7.7,7.7,7.7c4,0,7.2-3.6,9.5-8.7c0.1,2.7,0.2,4.7,0.3,5.4c0.3,2,1.8,3,4,3
			c1.6,0,2.4-0.9,2.5-2.6c0.1-1.6,0.3-7.1,0.5-13.8c3.1,8.4,6.7,16.6,12,16.6c5,0,7.3-6.7,7.3-12.5C384.5,39.6,384,38.8,383.2,38.8z
			 M233.3,19.8c1.7,0,2.6,1.2,2.6,3.3c0,2.8-1.7,7.1-8.6,9.8C227.9,23.9,230.3,19.8,233.3,19.8z M321.9,38.5
			c-0.6,4.9-1.9,8.4-4.6,8.4c-3.2,0-4.9-4.1-4.9-11.4c0-8.8,1.6-15.2,5.3-15.2c2.3,0,4,2,4.4,8.1c-1.6,1.2-2.5,3.4-2.5,5.5
			C319.7,35.8,320.3,37.4,321.9,38.5z" />
      <path class="st1" d="M165.8,35c-0.3,0-0.4,0.2-0.6,0.5c-1.3,4-3.3,6.5-5.8,9.2c0-11.7-0.1-21.1-0.4-26.2c-0.2-1.6-1.4-3.1-4-3.1
			c-1,0-1.5,0.7-1.6,3.8c-1.1-2.7-3.1-4.7-6.5-4.7c-6.8,0-11.5,6.9-11.9,21c-1.7,5.7-3.6,10-5.5,10c-1.4,0-2.5-1.4-2.5-5.8
			c0-7.1,1.3-14,1.3-18.9c0-3.9-1.5-6.3-4.9-6.3c-6.1,0-10.3,8.8-12.8,21.6c0.2-4.1,0.3-9.8,0.3-16.3c0-2.1-2.2-2.9-3.8-2.9
			c-1,0.1-1.3,0.7-1.6,1.9c-0.4,1.7-0.7,7.1-0.9,13c-1.9,7.5-4.1,13.7-6.3,13.7c-1.5,0-2.5-1.5-2.5-6.1c0-6.1,0.7-11.4,0.7-21.3
			c0-2.3-2.5-3.4-4.7-3.4c-1,0-1.7,0.4-2,2.2c-0.2,0.9-0.3,2.6-0.5,4.6c-0.8,2.2-1.8,4-2.9,5.3c-0.2-2.5-1.2-5-3.1-7
			c-4.3-4.6-11.4-5.1-16.2-1.2c-0.6,0.5-1.5,0.5-2.1,0C60.1,14.9,53,15.3,48.7,20c-4,4.3-4.1,10.7-0.8,15.3
			c-1.7,5.9-3.5,10.3-5.4,10.3c-1.5,0-2.5-1.5-2.5-6.1c0-6.1,0.7-11.4,0.7-21.3c0-2.3-2.5-3.4-4.7-3.4c-1,0-1.7,0.4-2,2.2
			c-0.6,3.4-1,15.7-1,22.2c0,9,1.9,14.2,7.4,14.2c4.9,0,8.6-6.7,10.9-14.6l13.1,13.1c0.9,0.9,2.3,0.9,3.2,0l15.1-15.1
			c0.8-0.8,1.5-1.7,2-2.7c1.6-0.6,2.9-1.5,4-2.6c-0.1,2.9-0.1,5.6-0.1,7.8c0,9,1.9,14.2,7.4,14.2c3.3,0,6-3.1,8.2-7.5
			c0,1.6,0,2.9,0,3.5c0.2,2.5,2.7,3.4,4.6,3.4c1.5,0,2.2-0.6,2.4-1.5c1.3-10.6,5.3-28.2,8.7-28.2c0.7,0,1,0.6,1,1.7
			c-0.2,4.9-1.1,10.9-1.1,16.4c-0.1,7.9,2.3,12.1,7.4,12.1c3.7,0,6.8-4.4,9.1-9.9c1.7,3.2,4.7,5,7.6,5c4,0,6.7-3.8,8.7-8.9
			c-0.1,3.4-0.1,6.1-0.1,8.6c-10.9,4.3-15.1,7-15.1,11.2s4.7,6,9.9,6c9.1,0,11.8-5,12.1-15.6c4.2-2.2,8.7-6.5,8.7-12.4
			C168,36.3,166.7,35,165.8,35z M79.9,33.9L66.8,47.1c-0.4,0.4-1.2,0.4-1.6,0L52,33.9c-1.5-1.5-2.5-3.5-2.5-5.6
			c-0.1-2.2,0.8-4.3,2.3-5.9c1.6-1.6,3.7-2.4,5.9-2.3c2.1,0.1,4.1,1,5.6,2.5l1.8,1.8c0.4,0.4,1.2,0.4,1.6,0l1.8-1.8
			c1.5-1.5,3.5-2.5,5.6-2.5c2.2-0.1,4.3,0.8,5.9,2.3c1.6,1.6,2.4,3.7,2.3,5.9C82.4,30.4,81.4,32.4,79.9,33.9z M143.9,42.2
			c-1.8,0-2.5-2.3-2.5-5.4c0-10.5,3.5-15.9,6.7-15.9c2,0,3.4,1.4,3.4,4.2C151.5,30.7,147.7,42.2,143.9,42.2z M152.4,52.8
			c0,5.7-1.4,8.2-4.7,8.2c-2.5,0-3.4-1-3.4-2.2c0-1.7,2.4-3.3,8.2-6.1V52.8z" />
    </g>
  </g>
</svg>